<?xml version="1.0" encoding="UTF-8" standalone="no"?>
<svg
   xmlns:dc="http://purl.org/dc/elements/1.1/"
   xmlns:cc="http://creativecommons.org/ns#"
   xmlns:rdf="http://www.w3.org/1999/02/22-rdf-syntax-ns#"
   xmlns:svg="http://www.w3.org/2000/svg"
   xmlns="http://www.w3.org/2000/svg"
   xmlns:xlink="http://www.w3.org/1999/xlink"
   xmlns:sodipodi="http://sodipodi.sourceforge.net/DTD/sodipodi-0.dtd"
   xmlns:inkscape="http://www.inkscape.org/namespaces/inkscape"
   id="Laag_1"
   data-name="Laag 1"
   viewBox="0 0 699.20001 154.47649"
   version="1.1"
   sodipodi:docname="logol0.svg"
   width="699.20001"
   height="154.47649"
   inkscape:version="0.92.5 (2060ec1f9f, 2020-04-08)">
  <metadata
     id="metadata181">
    <rdf:RDF>
      <cc:Work
         rdf:about="">
        <dc:format>image/svg+xml</dc:format>
        <dc:type
           rdf:resource="http://purl.org/dc/dcmitype/StillImage" />
        <dc:title></dc:title>
      </cc:Work>
    </rdf:RDF>
  </metadata>
  <sodipodi:namedview
     pagecolor="#ffffff"
     bordercolor="#666666"
     borderopacity="1"
     objecttolerance="10"
     gridtolerance="10"
     guidetolerance="10"
     inkscape:pageopacity="0"
     inkscape:pageshadow="2"
     inkscape:window-width="3775"
     inkscape:window-height="2082"
     id="namedview179"
     showgrid="false"
     fit-margin-top="0"
     fit-margin-left="0"
     fit-margin-right="0"
     fit-margin-bottom="0"
     inkscape:zoom="0.76485788"
     inkscape:cx="352.2"
     inkscape:cy="77.95"
     inkscape:window-x="65"
     inkscape:window-y="49"
     inkscape:window-maximized="1"
     inkscape:current-layer="Laag_1" />
  <defs
     id="defs32">
    <style
       id="style2">.cls-1{fill:#006690;}.cls-2{fill:#8fd300;}.cls-3{fill:#fff;}.cls-4{fill:url(#radial-gradient);}.cls-5{fill:url(#radial-gradient-2);}.cls-6{fill:url(#linear-gradient);}.cls-7{fill:url(#linear-gradient-2);}</style>
    <radialGradient
       id="radial-gradient"
       cx="116"
       cy="132.33"
       r="86.269997"
       gradientUnits="userSpaceOnUse">
      <stop
         offset="0"
         stop-color="#33b4cf"
         id="stop4" />
      <stop
         offset="0.13"
         stop-color="#2aa6c4"
         id="stop6" />
      <stop
         offset="0.5"
         stop-color="#1383a8"
         id="stop8" />
      <stop
         offset="0.8"
         stop-color="#056e96"
         id="stop10" />
      <stop
         offset="1"
         stop-color="#006690"
         id="stop12" />
    </radialGradient>
    <radialGradient
       id="radial-gradient-2"
       cx="116"
       cy="132.33"
       r="86.269997"
       xlink:href="#radial-gradient"
       gradientTransform="translate(-34.8,-38.973521)" />
    <linearGradient
       id="linear-gradient"
       x1="65.730003"
       y1="155.92999"
       x2="78.160004"
       y2="184.10001"
       gradientUnits="userSpaceOnUse">
      <stop
         offset="0"
         stop-color="#cee98a"
         id="stop16" />
      <stop
         offset="0.01"
         stop-color="#cce887"
         id="stop18" />
      <stop
         offset="0.25"
         stop-color="#b7e157"
         id="stop20" />
      <stop
         offset="0.47"
         stop-color="#a5db31"
         id="stop22" />
      <stop
         offset="0.68"
         stop-color="#99d716"
         id="stop24" />
      <stop
         offset="0.86"
         stop-color="#92d406"
         id="stop26" />
      <stop
         offset="1"
         stop-color="#8fd300"
         id="stop28" />
    </linearGradient>
    <linearGradient
       id="linear-gradient-2"
       x1="154.59"
       y1="127.85"
       x2="171.78"
       y2="166.78999"
       xlink:href="#linear-gradient"
       gradientTransform="translate(-34.8,-38.973521)" />
    <radialGradient
       inkscape:collect="always"
       xlink:href="#radial-gradient"
       id="radialGradient988"
       gradientUnits="userSpaceOnUse"
       cx="116"
       cy="132.33"
       r="86.269997"
       gradientTransform="translate(-34.8,-38.973521)" />
    <linearGradient
       inkscape:collect="always"
       xlink:href="#linear-gradient"
       id="linearGradient990"
       gradientUnits="userSpaceOnUse"
       x1="65.730003"
       y1="155.92999"
       x2="78.160004"
       y2="184.10001"
       gradientTransform="translate(-34.8,-38.973521)" />
  </defs>
  <path
     class="cls-1"
     d="m 182.75,36.916479 h 24.34 l 19.83,32.17 19.82,-32.17 h 24.34 V 120.02648 H 248.2 V 72.296479 l -21.24,32.520001 h -0.48 L 205.35,72.406479 v 47.620001 h -22.6 z"
     id="path34"
     inkscape:connector-curvature="0"
     style="fill:#006690" />
  <path
     class="cls-1"
     d="m 282,88.206479 v -0.24 c 0,-18.28 14.95,-33.59 35.5,-33.59 20.55,0 35.37,15.07 35.37,33.35 v 0.24 c 0,18.280001 -15,33.600001 -35.61,33.600001 -20.42,0 -35.26,-15.08 -35.26,-33.360001 z m 49,0 v -0.24 c 0,-8 -5.82,-14.6 -13.77,-14.6 -8.19,0 -13.41,6.53 -13.41,14.36 v 0.24 c 0,7.84 5.69,14.480001 13.65,14.480001 8.21,0 13.56,-6.530001 13.56,-14.240001 z"
     id="path36"
     inkscape:connector-curvature="0"
     style="fill:#006690" />
  <path
     class="cls-1"
     d="m 357.27,111.83648 8.43,-13.540001 c 7.35,4.870001 15.3,7.360001 22,7.360001 3.91,0 5.81,-1.18 5.81,-3.45 v -0.18 c 0,-2.610001 -3.68,-3.680001 -10.44,-5.580001 -12.75,-3.42 -22.87,-7.65 -22.87,-20.42 v -0.24 c 0,-13.65 10.92,-21.25 25.77,-21.25 a 50.17,50.17 0 0 1 26.46,7.48 l -7.71,14.25 c -6.65,-3.81 -13.89,-6.06 -19,-6.06 -3.45,0 -5.23,1.31 -5.23,3.21 v 0.24 c 0,2.49 3.8,3.68 10.45,5.69 12.7,3.56 22.79,8 22.79,20.43 v 0.230001 c 0,14.13 -10.57,21.49 -26.23,21.49 a 51.33,51.33 0 0 1 -30.23,-9.66 z"
     id="path38"
     inkscape:connector-curvature="0"
     style="fill:#006690" />
  <path
     class="cls-1"
     d="m 419.95,101.61648 v -0.23 c 0,-13.420001 10.09,-20.190001 25.16,-20.190001 a 46.19,46.19 0 0 1 15.44,2.49 v -1.06 c 0,-6.77 -4.16,-10.57 -12.83,-10.57 -6.76,0 -12,1.43 -17.8,3.56 l -4.63,-15.79 a 64.65,64.65 0 0 1 26,-5 c 11.52,0 19.36,2.73 24.46,7.84 4.87,4.74 6.88,11.39 6.88,20.41 v 36.950001 h -22.2 v -6.76 a 24.75,24.75 0 0 1 -19,8.19 c -12.23,-0.01 -21.48,-7.14 -21.48,-19.84 z m 40.83,-4.860001 v -3 a 25,25 0 0 0 -8.9,-1.65 c -6.53,0 -10.33,3.08 -10.33,8.000001 v 0.23 c 0,4.4 3.33,7 8,7 6.65,-0.02 11.23,-4.17 11.23,-10.580001 z"
     id="path40"
     inkscape:connector-curvature="0"
     style="fill:#006690" />
  <path
     class="cls-1"
     d="m 492.84,73.026479 h 38.93 v 19.71 h -38.93 z"
     id="path42"
     inkscape:connector-curvature="0"
     style="fill:#006690" />
  <path
     class="cls-1"
     d="m 543.88,36.916479 h 39.32 c 12.7,0 21.49,3.33 27.07,8.91 4.87,4.87 7.36,11.16 7.36,19.35 v 0.23 c 0,12.83 -6.76,21.25 -17.09,25.65 l 19.82,29.000001 h -26.5 L 577.13,94.886479 h -10.22 v 25.140001 h -23 z m 38.32,39.9 c 7.72,0 12.35,-3.81 12.35,-9.86 v -0.24 c 0,-6.65 -4.87,-10 -12.46,-10 h -15.2 v 20.07 z"
     id="path44"
     inkscape:connector-curvature="0"
     style="fill:#006690" />
  <path
     class="cls-1"
     d="m 649.54,57.096479 h -24.81 v -20.18 h 72.77 v 20.18 h -24.93 v 62.930001 h -23 z"
     id="path46"
     inkscape:connector-curvature="0"
     style="fill:#006690" />
  <path
     class="cls-2"
     d="m 184.47,0.28647861 h 3.31 V 9.7464786 l 9,-9.45999999 h 4.08 l -7.85,8.08999999 8.19,10.7400004 h -4 l -6.43,-8.48 -2.93,3 v 5.47 h -3.31 z"
     id="path48"
     inkscape:connector-curvature="0"
     style="fill:#8fd300" />
  <path
     class="cls-2"
     d="m 210.28,0.14647861 h 3.07 l 8.28,19.00000039 h -3.49 l -1.94,-4.58 h -8.9 l -1.93,4.55 H 202 Z m 4.74,11.49000039 -3.26,-7.5300004 -3.23,7.5300004 z"
     id="path50"
     inkscape:connector-curvature="0"
     style="fill:#8fd300" />
  <path
     class="cls-2"
     d="m 227.06,3.3464786 h -6 V 0.28647861 h 15.27 V 3.3464786 h -6 V 19.116479 H 227 Z"
     id="path52"
     inkscape:connector-curvature="0"
     style="fill:#8fd300" />
  <path
     class="cls-2"
     d="m 239.85,0.28647861 h 3.35 V 8.1064786 h 9 V 0.28647861 h 3.31 V 19.116479 h -3.31 v -7.94 h -9 v 7.94 h -3.31 z"
     id="path54"
     inkscape:connector-curvature="0"
     style="fill:#8fd300" />
  <path
     class="cls-2"
     d="m 259.44,9.7464786 v 0 a 9.85,9.85 0 0 1 19.69,-0.05 v 0.05 a 9.85,9.85 0 0 1 -19.69,0 z m 16.22,0 v 0 a 6.45,6.45 0 0 0 -6.4,-6.7 6.36,6.36 0 0 0 -6.34,6.65 v 0.05 a 6.42,6.42 0 0 0 6.4,6.6700004 6.33,6.33 0 0 0 6.34,-6.6700004 z"
     id="path56"
     inkscape:connector-curvature="0"
     style="fill:#8fd300" />
  <path
     class="cls-2"
     d="m 283.13,0.28647861 h 3.31 V 16.096479 h 9.89 v 3 h -13.2 z"
     id="path58"
     inkscape:connector-curvature="0"
     style="fill:#8fd300" />
  <path
     class="cls-2"
     d="m 299.96,0.28647861 h 3.31 V 19.116479 h -3.31 z"
     id="path60"
     inkscape:connector-curvature="0"
     style="fill:#8fd300" />
  <path
     class="cls-2"
     d="m 308.29,0.28647861 h 14 V 3.2864786 H 311.6 v 4.9 h 9.44 v 3.0000004 h -9.44 v 5.07 h 10.79 v 3 h -14.1 z"
     id="path62"
     inkscape:connector-curvature="0"
     style="fill:#8fd300" />
  <path
     class="cls-2"
     d="m 326.3,0.28647861 h 3.31 V 9.7464786 l 9,-9.45999999 h 4.09 l -7.86,8.08999999 8.21,10.7400004 h -4 l -6.43,-8.48 -2.93,3 v 5.47 h -3.39 z"
     id="path64"
     inkscape:connector-curvature="0"
     style="fill:#8fd300" />
  <path
     class="cls-2"
     d="m 352.62,16.366479 2,-2.37 a 8.67,8.67 0 0 0 5.94,2.45 c 2,0 3.34,-1 3.34,-2.37 v 0 c 0,-1.34 -0.75,-2.07 -4.25,-2.88 -4,-1 -6.27,-2.1500004 -6.27,-5.6200004 v 0 c 0,-3.23 2.69,-5.45999999 6.43,-5.45999999 a 10.45,10.45 0 0 1 6.83,2.35999999 l -1.77,2.51 a 8.53,8.53 0 0 0 -5.11,-1.94 c -1.94,0 -3.07,1 -3.07,2.23 v 0.06 c 0,1.45 0.86,2.09 4.49,3 4,1 6,2.3900004 6,5.5100004 v 0 c 0,3.52 -2.76,5.62 -6.72,5.62 a 11.57,11.57 0 0 1 -7.84,-3.1 z"
     id="path66"
     inkscape:connector-curvature="0"
     style="fill:#8fd300" />
  <path
     class="cls-2"
     d="m 371.08,0.28647861 h 14 V 3.2864786 H 374.4 v 4.9 h 9.44 v 3.0000004 h -9.44 v 5.07 h 10.8 v 3 h -14.1 z"
     id="path68"
     inkscape:connector-curvature="0"
     style="fill:#8fd300" />
  <path
     class="cls-2"
     d="m 388.26,9.7464786 v 0 a 9.53,9.53 0 0 1 9.71,-9.73999999 9.82,9.82 0 0 1 7.37,2.93999999 l -2.14,2.39 a 7.53,7.53 0 0 0 -5.25,-2.31 6.34,6.34 0 0 0 -6.22,6.65 v 0.05 c 0,3.6800004 2.61,6.6700004 6.22,6.6700004 a 7.36,7.36 0 0 0 5.4,-2.42 l 2.13,2.15 a 9.72,9.72 0 0 1 -7.64,3.34 9.47,9.47 0 0 1 -9.58,-9.7200004 z"
     id="path70"
     inkscape:connector-curvature="0"
     style="fill:#8fd300" />
  <path
     class="cls-2"
     d="M 408.64,11.116479 V 0.28647861 h 3.31 V 11.026479 c 0,3.5 1.8,5.35 4.76,5.35 2.96,0 4.73,-1.75 4.73,-5.22 V 0.28647861 h 3.31 V 10.956479 c 0,5.63 -3.17,8.45 -8.1,8.45 -4.93,0 -8.01,-2.82 -8.01,-8.29 z"
     id="path72"
     inkscape:connector-curvature="0"
     style="fill:#8fd300" />
  <path
     class="cls-2"
     d="m 429.28,0.28647861 h 3.07 L 442.44,13.286479 V 0.28647861 h 3.25 V 19.116479 h -2.77 L 432.54,5.7164786 V 19.116479 h -3.26 z"
     id="path74"
     inkscape:connector-curvature="0"
     style="fill:#8fd300" />
  <path
     class="cls-2"
     d="m 450.52,0.28647861 h 7 c 5.91,0 10,4.05999999 10,9.35999999 v 0.05 c 0,5.3000004 -4.09,9.4200004 -10,9.4200004 h -7 z m 3.31,2.99999999 V 16.086479 h 3.72 a 6.14,6.14 0 0 0 6.53,-6.3500004 v 0 a 6.18,6.18 0 0 0 -6.53,-6.4 z"
     id="path76"
     inkscape:connector-curvature="0"
     style="fill:#8fd300" />
  <path
     class="cls-2"
     d="m 476.9,0.14647861 h 3.06 l 8.29,19.00000039 h -3.51 l -1.9,-4.55 h -8.91 l -1.93,4.55 h -3.39 z m 4.73,11.49000039 -3.25,-7.5300004 -3.18,7.5300004 z"
     id="path78"
     inkscape:connector-curvature="0"
     style="fill:#8fd300" />
  <path
     class="cls-2"
     d="m 491.65,0.28647861 h 3.31 V 19.116479 h -3.31 z"
     id="path80"
     inkscape:connector-curvature="0"
     style="fill:#8fd300" />
  <path
     class="cls-2"
     d="m 499.98,0.28647861 h 8.39 a 7.61,7.61 0 0 1 5.44,1.87999999 5.67,5.67 0 0 1 1.56,4.06 v 0.06 a 5.66,5.66 0 0 1 -4.47,5.7400004 l 5.09,7.13 h -3.93 l -4.62,-6.57 h -4.15 v 6.57 h -3.31 z m 8.15,9.32999999 c 2.37,0 3.88,-1.24 3.88,-3.14 v -0.06 c 0,-2 -1.46,-3.12 -3.9,-3.12 h -4.82 v 6.32 z"
     id="path82"
     inkscape:connector-curvature="0"
     style="fill:#8fd300" />
  <path
     class="cls-2"
     d="m 526.65,9.7464786 v 0 a 9.85,9.85 0 0 1 19.69,-0.05 v 0.05 a 9.85,9.85 0 0 1 -19.69,0 z m 16.22,0 v 0 a 6.45,6.45 0 0 0 -6.4,-6.7 6.37,6.37 0 0 0 -6.35,6.65 v 0.05 a 6.42,6.42 0 0 0 6.4,6.6700004 6.34,6.34 0 0 0 6.35,-6.6700004 z"
     id="path84"
     inkscape:connector-curvature="0"
     style="fill:#8fd300" />
  <path
     class="cls-2"
     d="m 550.33,0.28647861 h 3.07 L 563.48,13.286479 V 0.28647861 h 3.26 V 19.116479 h -2.77 L 553.59,5.7164786 V 19.116479 h -3.26 z"
     id="path86"
     inkscape:connector-curvature="0"
     style="fill:#8fd300" />
  <path
     class="cls-2"
     d="m 571.57,0.28647861 h 7 c 5.91,0 10,4.05999999 10,9.35999999 v 0.05 c 0,5.3000004 -4.09,9.4200004 -10,9.4200004 h -7 z m 3.31,2.99999999 V 16.086479 h 3.71 a 6.13,6.13 0 0 0 6.53,-6.3500004 v 0 a 6.18,6.18 0 0 0 -6.53,-6.4 z"
     id="path88"
     inkscape:connector-curvature="0"
     style="fill:#8fd300" />
  <path
     class="cls-2"
     d="m 592.59,0.28647861 h 14 V 3.2864786 H 595.9 v 4.9 h 9.44 v 3.0000004 h -9.44 v 5.07 h 10.79 v 3 h -14.1 z"
     id="path90"
     inkscape:connector-curvature="0"
     style="fill:#8fd300" />
  <path
     class="cls-2"
     d="m 610.6,0.28647861 h 8.39 a 7.57,7.57 0 0 1 5.43,1.87999999 5.67,5.67 0 0 1 1.57,4.06 v 0.06 a 5.66,5.66 0 0 1 -4.47,5.7000004 l 5.08,7.13 h -3.92 l -4.63,-6.57 h -4.14 v 6.57 h -3.31 z m 8.15,9.32999999 c 2.36,0 3.87,-1.24 3.87,-3.14 v -0.06 c 0,-2 -1.45,-3.12 -3.89,-3.12 h -4.82 v 6.32 z"
     id="path92"
     inkscape:connector-curvature="0"
     style="fill:#8fd300" />
  <path
     class="cls-2"
     d="m 628.2,0.28647861 h 3.58 l 4.49,14.00000039 4.62,-14.00000039 h 2.8 l 4.63,14.00000039 4.49,-14.00000039 h 3.47 L 649.75,19.286479 h -2.88 L 642.2,5.7164786 637.57,19.246479 h -2.84 z"
     id="path94"
     inkscape:connector-curvature="0"
     style="fill:#8fd300" />
  <path
     class="cls-2"
     d="m 659.82,0.28647861 h 3.31 V 19.116479 h -3.31 z"
     id="path96"
     inkscape:connector-curvature="0"
     style="fill:#8fd300" />
  <path
     class="cls-2"
     d="m 666.3,16.336479 2.18,-2.26 c 1.1,1.43 2.2,2.24 3.79,2.24 1.78,0 3,-1.18 3,-3.71 V 0.28647861 h 3.42 V 12.716479 a 6.87,6.87 0 0 1 -1.77,5 6.31,6.31 0 0 1 -4.58,1.66 7.07,7.07 0 0 1 -6.04,-3.04 z"
     id="path98"
     inkscape:connector-curvature="0"
     style="fill:#8fd300" />
  <path
     class="cls-2"
     d="m 681.94,16.366479 2,-2.37 a 8.65,8.65 0 0 0 5.94,2.45 c 2,0 3.33,-1 3.33,-2.37 v 0 c 0,-1.34 -0.74,-2.07 -4.25,-2.88 -4,-1 -6.26,-2.1500004 -6.26,-5.6200004 v 0 c 0,-3.23 2.69,-5.45999999 6.43,-5.45999999 a 10.45,10.45 0 0 1 6.83,2.35999999 l -1.76,2.41 a 8.49,8.49 0 0 0 -5.11,-1.94 c -1.93,0 -3.06,1 -3.06,2.23 v 0.06 c 0,1.45 0.86,2.09 4.49,3 4,1 6,2.3900004 6,5.5100004 v 0 c 0,3.52 -2.77,5.62 -6.72,5.62 a 11.61,11.61 0 0 1 -7.86,-3 z"
     id="path100"
     inkscape:connector-curvature="0"
     style="fill:#8fd300" />
  <path
     class="cls-2"
     d="m 184.04,138.18648 h 6.9 a 6.23,6.23 0 0 1 4.46,1.55 4.67,4.67 0 0 1 1.28,3.34 v 0 a 4.65,4.65 0 0 1 -3.66,4.69 l 4.17,5.85 h -3.23 l -3.8,-5.39 h -3.4 v 5.39 h -2.72 z m 6.7,7.67 c 1.94,0 3.18,-1 3.18,-2.58 v -0.05 c 0,-1.65 -1.19,-2.56 -3.2,-2.56 h -4 v 5.19 z"
     id="path102"
     inkscape:connector-curvature="0"
     style="fill:#8fd300" />
  <path
     class="cls-2"
     d="m 199.79,147.09648 v -8.91 h 2.71 v 8.84 c 0,2.87 1.48,4.4 3.92,4.4 2.44,0 3.89,-1.44 3.89,-4.29 v -8.91 h 2.71 v 8.78 c 0,4.62 -2.6,6.94 -6.65,6.94 -4.05,0 -6.58,-2.36 -6.58,-6.85 z"
     id="path104"
     inkscape:connector-curvature="0"
     style="fill:#8fd300" />
  <path
     class="cls-2"
     d="m 216.93,138.18648 h 2.71 v 15.47 h -2.71 z"
     id="path106"
     inkscape:connector-curvature="0"
     style="fill:#8fd300" />
  <path
     class="cls-2"
     d="m 223.78,138.18648 h 2.9 l 4.7,7.32 4.71,-7.32 h 2.89 v 15.47 h -2.71 v -11.09 l -4.89,7.29 h -0.09 l -4.84,-7.25 v 11 h -2.67 z"
     id="path108"
     inkscape:connector-curvature="0"
     style="fill:#8fd300" />
  <path
     class="cls-2"
     d="m 246.78,140.70648 h -4.91 v -2.52 h 12.55 v 2.52 h -4.91 v 12.95 h -2.73 z"
     id="path110"
     inkscape:connector-curvature="0"
     style="fill:#8fd300" />
  <path
     class="cls-2"
     d="m 257.3,138.18648 h 11.47 v 2.44 h -8.75 v 4 h 7.76 v 2.43 h -7.76 v 4.16 h 8.86 v 2.42 H 257.3 Z"
     id="path112"
     inkscape:connector-curvature="0"
     style="fill:#8fd300" />
  <path
     class="cls-2"
     d="m 277.42,138.18648 h 3 l 4.66,11.9 4.64,-11.9 h 2.94 l -6.41,15.59 h -2.41 z"
     id="path114"
     inkscape:connector-curvature="0"
     style="fill:#8fd300" />
  <path
     class="cls-2"
     d="m 293.68,145.96648 v 0 a 8.09,8.09 0 0 1 16.18,0 v 0 a 8.09,8.09 0 0 1 -16.18,0 z m 13.33,0 v 0 a 5.3,5.3 0 0 0 -5.26,-5.5 5.22,5.22 0 0 0 -5.22,5.46 v 0 a 5.29,5.29 0 0 0 5.26,5.48 5.21,5.21 0 0 0 5.22,-5.44 z"
     id="path116"
     inkscape:connector-curvature="0"
     style="fill:#8fd300" />
  <path
     class="cls-2"
     d="m 312.48,145.96648 v 0 a 8.09,8.09 0 0 1 16.17,0 v 0 a 8.09,8.09 0 0 1 -16.17,0 z m 13.32,0 v 0 a 5.3,5.3 0 0 0 -5.26,-5.5 5.23,5.23 0 0 0 -5.22,5.46 v 0 a 5.29,5.29 0 0 0 5.27,5.48 5.21,5.21 0 0 0 5.21,-5.44 z"
     id="path118"
     inkscape:connector-curvature="0"
     style="fill:#8fd300" />
  <path
     class="cls-2"
     d="m 331.95,138.18648 h 6.9 a 6.23,6.23 0 0 1 4.46,1.55 4.68,4.68 0 0 1 1.29,3.34 v 0 a 4.66,4.66 0 0 1 -3.67,4.69 l 4.17,5.85 h -3.22 l -3.8,-5.39 h -3.41 v 5.39 h -2.72 z m 6.7,7.67 c 1.95,0 3.19,-1 3.19,-2.58 v -0.05 c 0,-1.65 -1.2,-2.56 -3.21,-2.56 h -4 v 5.19 z"
     id="path120"
     inkscape:connector-curvature="0"
     style="fill:#8fd300" />
  <path
     class="cls-2"
     d="m 358.38,140.70648 h -4.91 v -2.52 h 12.55 v 2.52 h -4.91 v 12.95 h -2.73 z"
     id="path122"
     inkscape:connector-curvature="0"
     style="fill:#8fd300" />
  <path
     class="cls-2"
     d="m 372.39,138.08648 h 2.52 l 6.81,15.57 h -2.88 l -1.56,-3.73 h -7.31 l -1.6,3.73 h -2.78 z m 3.9,9.43 -2.68,-6.19 -2.65,6.19 z"
     id="path124"
     inkscape:connector-curvature="0"
     style="fill:#8fd300" />
  <path
     class="cls-2"
     d="m 384.38,138.18648 h 2.72 v 13 h 8.1 v 2.47 h -10.82 z"
     id="path126"
     inkscape:connector-curvature="0"
     style="fill:#8fd300" />
  <path
     class="cls-2"
     d="m 398.07,138.18648 h 11.47 v 2.44 h -8.75 v 4 h 7.75 v 2.43 h -7.75 v 4.16 h 8.86 v 2.42 h -11.58 z"
     id="path128"
     inkscape:connector-curvature="0"
     style="fill:#8fd300" />
  <path
     class="cls-2"
     d="m 412.89,138.18648 h 2.52 l 8.28,10.7 v -10.7 h 2.67 v 15.47 h -2.27 l -8.53,-11 v 11 h -2.67 z"
     id="path130"
     inkscape:connector-curvature="0"
     style="fill:#8fd300" />
  <path
     class="cls-2"
     d="m 434.2,140.70648 h -5 v -2.52 h 12.6 v 2.52 h -4.9 v 12.95 h -2.7 z"
     id="path132"
     inkscape:connector-curvature="0"
     style="fill:#8fd300" />
  <path
     class="cls-2"
     d="m 443.82,142.02648 h 2.94 v 3 h -2.94 z m 0,8.62 h 2.94 v 3 h -2.94 z"
     id="path134"
     inkscape:connector-curvature="0"
     style="fill:#8fd300" />
  <path
     class="cls-2"
     d="m 456.31,145.96648 v 0 a 7.88,7.88 0 0 1 8,-8 8.38,8.38 0 0 1 6,2.1 l -1.73,2.05 a 6.07,6.07 0 0 0 -4.38,-1.69 5.23,5.23 0 0 0 -5,5.46 v 0 c 0,3.18 2.1,5.53 5.26,5.53 a 6.32,6.32 0 0 0 3.73,-1.17 v -2.9 h -3.99 v -2.32 h 6.59 v 6.49 a 9.84,9.84 0 0 1 -6.46,2.41 7.68,7.68 0 0 1 -8.02,-7.96 z"
     id="path136"
     inkscape:connector-curvature="0"
     style="fill:#8fd300" />
  <path
     class="cls-2"
     d="m 474.33,138.18648 h 6.87 a 6.23,6.23 0 0 1 4.46,1.55 4.72,4.72 0 0 1 1.29,3.34 v 0 a 4.66,4.66 0 0 1 -3.68,4.69 l 4.19,5.85 h -3.23 l -3.8,-5.39 h -3.41 v 5.39 h -2.72 z m 6.7,7.67 c 1.95,0 3.18,-1 3.18,-2.58 v -0.05 c 0,-1.65 -1.19,-2.56 -3.2,-2.56 h -4 v 5.19 z"
     id="path138"
     inkscape:connector-curvature="0"
     style="fill:#8fd300" />
  <path
     class="cls-2"
     d="m 490.32,138.18648 h 11.47 v 2.44 h -8.75 v 4 h 7.76 v 2.43 h -7.76 v 4.16 h 8.86 v 2.42 h -11.58 z"
     id="path140"
     inkscape:connector-curvature="0"
     style="fill:#8fd300" />
  <path
     class="cls-2"
     d="m 505.14,138.18648 h 2.52 l 8.29,10.7 v -10.7 h 2.67 v 15.47 h -2.28 l -8.53,-11 v 11 h -2.67 z"
     id="path142"
     inkscape:connector-curvature="0"
     style="fill:#8fd300" />
  <path
     class="cls-2"
     d="m 521.57,151.40648 1.64,-1.95 a 7.11,7.11 0 0 0 4.88,2 c 1.68,0 2.73,-0.8 2.73,-1.95 v 0 c 0,-1.11 -0.61,-1.7 -3.48,-2.37 -3.3,-0.79 -5.16,-1.77 -5.16,-4.61 v 0 c 0,-2.65 2.22,-4.48 5.29,-4.48 a 8.62,8.62 0 0 1 5.62,1.94 l -1.47,2.05 a 7.06,7.06 0 0 0 -4.19,-1.59 c -1.6,0 -2.52,0.82 -2.52,1.84 v 0 c 0,1.19 0.7,1.72 3.68,2.43 3.27,0.8 5,2 5,4.53 v 0 c 0,2.9 -2.28,4.62 -5.53,4.62 a 9.52,9.52 0 0 1 -6.49,-2.46 z"
     id="path144"
     inkscape:connector-curvature="0"
     style="fill:#8fd300" />
  <path
     class="cls-2"
     d="m 534.78,138.18648 h 3 l 4.66,11.9 4.64,-11.9 h 2.94 l -6.41,15.59 h -2.41 z"
     id="path146"
     inkscape:connector-curvature="0"
     style="fill:#8fd300" />
  <path
     class="cls-2"
     d="m 552.68,138.18648 h 11.52 v 2.44 h -8.8 v 4 h 7.8 v 2.43 h -7.8 v 4.16 h 8.86 v 2.42 h -11.58 z"
     id="path148"
     inkscape:connector-curvature="0"
     style="fill:#8fd300" />
  <path
     class="cls-2"
     d="m 567.5,138.18648 h 6.9 a 6.23,6.23 0 0 1 4.46,1.55 4.71,4.71 0 0 1 1.28,3.34 v 0 a 4.66,4.66 0 0 1 -3.67,4.69 l 4.18,5.85 h -3.23 l -3.8,-5.39 h -3.42 v 5.39 h -2.7 z m 6.69,7.67 c 2,0 3.19,-1 3.19,-2.58 v -0.05 c 0,-1.65 -1.2,-2.56 -3.21,-2.56 h -4 v 5.19 z"
     id="path150"
     inkscape:connector-curvature="0"
     style="fill:#8fd300" />
  <path
     class="cls-2"
     d="m 583.49,138.18648 h 2.71 v 13 h 8.13 v 2.47 h -10.84 z"
     id="path152"
     inkscape:connector-curvature="0"
     style="fill:#8fd300" />
  <path
     class="cls-2"
     d="m 597.2,138.18648 h 11.47 v 2.44 h -8.75 v 4 h 7.76 v 2.43 h -7.76 v 4.16 h 8.86 v 2.42 H 597.2 Z"
     id="path154"
     inkscape:connector-curvature="0"
     style="fill:#8fd300" />
  <path
     class="cls-2"
     d="m 611.3,145.96648 v 0 a 7.89,7.89 0 0 1 8,-8 8.37,8.37 0 0 1 5.9,2.06 l -1.73,2.05 a 6.07,6.07 0 0 0 -4.27,-1.65 5.23,5.23 0 0 0 -5,5.46 v 0 c 0,3.18 2.1,5.53 5.26,5.53 a 6.38,6.38 0 0 0 3.74,-1.17 v -2.9 h -4 v -2.32 h 6.59 v 6.49 a 9.84,9.84 0 0 1 -6.46,2.41 7.68,7.68 0 0 1 -8.03,-7.96 z"
     id="path156"
     inkscape:connector-curvature="0"
     style="fill:#8fd300" />
  <path
     class="cls-2"
     d="m 628.64,145.96648 v 0 a 7.89,7.89 0 0 1 8,-8 8.37,8.37 0 0 1 6,2.1 l -1.73,2.05 a 6.07,6.07 0 0 0 -4.33,-1.65 5.23,5.23 0 0 0 -5,5.46 v 0 c 0,3.18 2.1,5.53 5.26,5.53 a 6.32,6.32 0 0 0 3.73,-1.17 v -2.9 h -3.95 v -2.36 h 6.58 v 6.49 a 9.79,9.79 0 0 1 -6.45,2.41 7.68,7.68 0 0 1 -8.11,-7.96 z"
     id="path158"
     inkscape:connector-curvature="0"
     style="fill:#8fd300" />
  <path
     class="cls-2"
     d="m 646.66,138.18648 h 11.47 v 2.44 h -8.75 v 4 h 7.76 v 2.43 h -7.76 v 4.16 h 8.82 v 2.42 h -11.54 z"
     id="path160"
     inkscape:connector-curvature="0"
     style="fill:#8fd300" />
  <path
     class="cls-2"
     d="m 661.48,138.18648 h 2.51 l 8.29,10.7 v -10.7 h 2.68 v 15.47 h -2.28 l -8.53,-11 v 11 h -2.67 z"
     id="path162"
     inkscape:connector-curvature="0"
     style="fill:#8fd300" />
  <path
     class="cls-2"
     d="m 678.95,138.18648 h 5.77 c 4.86,0 8.22,3.35 8.22,7.7 v 0 c 0,4.36 -3.36,7.73 -8.22,7.73 h -5.77 z m 2.72,2.48 v 10.52 h 3 a 5,5 0 0 0 5.37,-5.22 v 0 a 5.08,5.08 0 0 0 -5.37,-5.26 z"
     id="path164"
     inkscape:connector-curvature="0"
     style="fill:#8fd300" />
  <path
     class="cls-2"
     d="m 696.02,138.96648 v -0.78 h 3.18 v 0.78 l -0.82,9.79 h -1.48 z m 0.11,11.65 h 2.94 v 3 h -2.94 z"
     id="path166"
     inkscape:connector-curvature="0"
     style="fill:#8fd300" />
  <rect
     class="cls-3"
     x="9.869998"
     y="0.026478609"
     width="139.33"
     height="154.33"
     id="rect168"
     style="fill:#ffffff" />
  <path
     class="cls-4"
     d="M 69.2,96.706479 A 281.67,281.67 0 0 0 23.78,113.52648 l -4.27,-18.780001 46.81,-10.63 -3.29,-14.59 -25.64,5.83 -4.74,-20.86 25.91,-5.89 L 47.2,0.25647861 H 0 V 127.02648 c 18.34,-11.94 42.2,-22.54 69.2,-30.100001 z"
     id="path170"
     inkscape:connector-curvature="0"
     style="fill:url(#radialGradient988)" />
  <path
     class="cls-5"
     d="m 72.14,0.25647861 10.07,43.00000039 25.66,-5.83 4.74,20.86 -25.77,5.86 3.28,14.58 47,-10.67 4,17.67 a 279.31,279.31 0 0 0 -48.22,5.3 v 0.21 c 24.05,-4.75 46.93,-6.32 66.76,-5 V 0.23647861 Z"
     id="path172"
     inkscape:connector-curvature="0"
     style="fill:url(#radial-gradient-2)" />
  <path
     class="cls-6"
     d="M 69.2,95.956479 A 281.67,281.67 0 0 0 23.82,112.77648 v -0.18 A 250.35,250.35 0 0 0 0,126.27648 v 28.2 h 82.34 z"
     id="path174"
     inkscape:connector-curvature="0"
     style="fill:url(#linearGradient990)" />
  <path
     class="cls-7"
     d="m 97.74,89.416479 c -1.61,0.29 -3.22,0.58 -4.84,0.9 l 14.44,64.160001 h 52.37 V 85.476479 c -18.42,-1.18 -39.64,0.25 -61.97,3.94 z"
     id="path176"
     inkscape:connector-curvature="0"
     style="fill:url(#linear-gradient-2)" />
</svg>
