<?xml version="1.0" encoding="UTF-8"?> <svg xmlns="http://www.w3.org/2000/svg" width="199" height="148" viewBox="0 0 199 148" fill="none"><path d="M145.499 79.9226H129.607V120.591H145.499V79.9226Z" fill="#6864D5"></path><path d="M155.469 106.772H169.782C169.782 108.845 171.559 110.029 176.79 110.029C181.133 110.128 182.812 109.141 182.812 108.055C182.812 107.759 183.108 106.377 179.752 105.982L174.421 105.192C166.722 104.008 156.456 103.811 156.456 92.4588C156.456 84.1672 163.069 79.0342 176.988 79.0342C189.326 79.0342 198.013 81.8968 197.519 94.5318H183.305C182.91 92.4588 181.035 91.2743 176.593 91.2743C172.842 91.2743 171.756 92.2614 171.756 93.2485C171.756 93.5447 171.657 94.8279 174.026 95.124L178.271 95.815C186.563 97.1969 198.704 96.7034 198.704 108.746C198.704 118.124 191.597 122.467 176.889 122.368C161.589 122.368 154.877 117.926 155.469 106.772Z" fill="#6864D5"></path><path d="M45.012 125.329C45.012 112.102 54.0933 103.613 68.505 103.613C82.9167 103.613 91.9981 112.102 91.9981 125.329C91.9981 138.458 82.9167 147.046 68.505 147.046C54.0933 146.947 45.012 138.458 45.012 125.329ZM76.2044 125.329C76.2044 119.9 72.5521 117.334 68.505 117.334C64.4579 117.334 60.8056 119.9 60.8056 125.329C60.8056 130.66 64.4579 133.325 68.505 133.325C72.5521 133.325 76.2044 130.66 76.2044 125.329Z" fill="#6864D5"></path><path d="M0 80.4162H28.0337C39.2867 80.4162 46.2951 85.1543 46.2951 96.9008C46.2951 108.647 39.2867 113.484 28.1324 113.484H15.8924V121.085H0V80.4162ZM26.4544 100.257C28.7247 100.257 30.2054 99.0724 30.2054 96.9008C30.2054 94.6305 28.7247 93.5446 26.5531 93.5446H15.8924V100.257H26.4544Z" fill="#6864D5"></path><path d="M100.882 104.995H116.774V132.338H137.306V145.664H100.882V104.995Z" fill="#6864D5"></path><path d="M110.654 61.4638C107.101 62.5496 103.745 63.9316 100.487 65.4122C97.5259 64.0303 94.4659 62.8457 91.2085 61.8586C80.8439 58.6999 70.0845 57.4167 59.2263 58.0089V68.4722C69.0974 67.88 78.771 68.9658 88.1484 71.8284C88.642 71.9271 89.0368 72.1245 89.5304 72.3219C81.5348 78.442 75.2174 86.5362 70.578 96.4073C74.4277 96.506 77.9813 97.1969 81.2387 98.2828C88.2472 84.8581 99.1053 75.8755 113.813 71.4335C124.079 68.2748 134.937 67.189 145.697 68.2748V57.8115C133.851 56.8244 121.907 58.1076 110.654 61.4638Z" fill="#1D1D1B"></path><path d="M32.8705 64.0303H17.4716L16.1884 68.4722H0.0986328L14.2142 27.8036H36.0292L50.1448 68.4722H34.055L32.8705 64.0303ZM29.3169 52.3825L26.4543 42.7088H23.8878L21.0252 52.3825H29.3169Z" fill="#1D1D1B"></path><path d="M46.2952 22.6706C46.2952 9.44343 55.1791 0.954346 69.4921 0.954346C79.3631 0.954346 89.629 5.88986 90.8135 17.3403H75.4147C74.9212 16.4519 72.947 14.6751 69.8869 14.6751C64.9514 14.6751 61.7927 17.6364 61.7927 22.6706C61.7927 27.7048 65.0501 30.7649 69.5908 30.7649C71.4663 30.7649 74.9212 30.6662 75.8096 27.1126H68.9985V19.9067H90.8135V43.0049H82.9167L82.7193 36.0952C80.6464 40.0436 76.2044 44.3869 67.5179 44.3869C55.6726 44.2882 46.2952 35.7991 46.2952 22.6706Z" fill="#1D1D1B"></path><path d="M129.705 42.9062L125.066 33.4301H117.071V42.9062H101.573V2.3363H125.56C136.813 2.3363 143.327 6.97569 143.327 18.5248C143.327 23.7564 141.156 27.6061 138.195 29.9752L144.907 43.005H129.705V42.9062ZM117.071 21.7822H124.375C126.744 21.7822 127.731 20.499 127.731 18.6235C127.731 16.748 126.645 15.4648 124.375 15.4648H117.071V21.7822Z" fill="#1D1D1B"></path><path d="M152.014 48.1378C152.014 34.9107 161.095 26.4216 175.507 26.4216C189.919 26.4216 199 34.9107 199 48.1378C199 61.2663 189.919 69.8541 175.507 69.8541C161.095 69.8541 152.014 61.2663 152.014 48.1378ZM183.206 48.1378C183.206 42.7088 179.554 40.1423 175.507 40.1423C171.46 40.1423 167.808 42.7088 167.808 48.1378C167.808 53.4682 171.46 56.1334 175.507 56.1334C179.554 56.1334 183.206 53.4682 183.206 48.1378Z" fill="#1D1D1B"></path></svg> 